<svg xmlns="http://www.w3.org/2000/svg" viewBox="22 22 20 20">
  <g id="surface1">
    <path style="stroke:none;fill-rule:nonzero;fill:#2563eb;fill-opacity:1;" d="M 38.71875 25.28125 C 37.082031 26.226562 35.277344 27.269531 34.707031 27.597656 C 34.132812 27.921875 33.675781 28.21875 33.683594 28.25 C 33.703125 28.300781 37.773438 30.476562 37.796875 30.445312 C 37.894531 30.316406 41.765625 23.550781 41.742188 23.550781 C 41.714844 23.558594 40.359375 24.332031 38.71875 25.28125 Z"/>
    <path style="stroke:none;fill-rule:nonzero;fill:#2563eb;fill-opacity:1;" d="M 22.414062 23.871094 C 22.503906 24.03125 23.867188 26.394531 25.441406 29.121094 C 27.015625 31.847656 29.125 35.511719 30.136719 37.261719 C 31.140625 39.015625 31.980469 40.449219 32 40.449219 C 32.039062 40.449219 33.601562 37.742188 33.601562 37.675781 C 33.601562 37.632812 22.515625 23.839844 22.347656 23.679688 C 22.296875 23.628906 22.324219 23.710938 22.414062 23.871094 Z"/>
    <path style="stroke:none;fill-rule:nonzero;fill:#2563eb;fill-opacity:1;" d="M 24.839844 25.28125 C 25.035156 25.511719 27.175781 27.957031 29.601562 30.71875 C 32.019531 33.484375 34.09375 35.851562 34.207031 35.988281 L 34.414062 36.222656 L 36 36.210938 L 37.582031 36.191406 L 31.199219 30.65625 C 27.691406 27.609375 24.742188 25.0625 24.652344 24.992188 C 24.558594 24.929688 24.640625 25.054688 24.839844 25.28125 Z"/>
    <path style="stroke:none;fill-rule:nonzero;fill:#2563eb;fill-opacity:1;" d="M 27.425781 26.609375 C 27.460938 26.644531 29.445312 28.132812 31.839844 29.925781 L 36.191406 33.175781 L 37.644531 33.175781 C 38.453125 33.183594 39.105469 33.164062 39.105469 33.144531 C 39.105469 33.121094 28.273438 27.019531 27.589844 26.664062 C 27.460938 26.597656 27.390625 26.574219 27.425781 26.609375 Z"/>
  </g>
</svg>
